<?xml version="1.0" encoding="UTF-8"?>
<svg version="1.1" xmlns="http://www.w3.org/2000/svg" width="120" height="120">
<path d="M0 0 C39.6 0 79.2 0 120 0 C120 39.6 120 79.2 120 120 C80.4 120 40.8 120 0 120 C0 80.4 0 40.8 0 0 Z " fill="#FEFDFD" transform="translate(0,0)"/>
<path d="M0 0 C1.47668858 0.0133035 2.95331108 0.03716415 4.4296875 0.0703125 C5.18378906 0.07933594 5.93789062 0.08835937 6.71484375 0.09765625 C8.57826004 0.1212438 10.44151343 0.15711531 12.3046875 0.1953125 C14.45443486 6.33823626 16.21726939 12.49541756 17.7421875 18.8203125 C19.59469566 26.38454399 21.54468499 33.9118251 23.60546875 41.421875 C24.3046875 44.1953125 24.3046875 44.1953125 24.3046875 46.1953125 C16.26540141 45.01717174 8.59299388 43.30446261 0.8046875 41.0078125 C-8.52837793 38.32265648 -17.89254971 35.83863357 -27.3203125 33.5078125 C-28.50246338 33.21318115 -29.68461426 32.9185498 -30.90258789 32.61499023 C-35.80249906 31.39580246 -40.70323711 30.18774052 -45.62109375 29.04296875 C-46.95837996 28.71894235 -48.29562462 28.39474441 -49.6328125 28.0703125 C-50.71433594 27.82023437 -51.79585937 27.57015625 -52.91015625 27.3125 C-56.45906163 25.88895591 -58.29657804 24.1561833 -60.6953125 21.1953125 C-61.5078125 18.3828125 -61.5078125 18.3828125 -61.6953125 16.1953125 C-48.28879966 19.25451677 -34.98831408 22.67776893 -21.6953125 26.1953125 C-17.7918181 21.62237824 -14.72754989 16.6047152 -11.5703125 11.5078125 C-10.50765459 9.79405364 -9.44265768 8.08174227 -8.375 6.37109375 C-7.90819824 5.61739502 -7.44139648 4.86369629 -6.96044922 4.0871582 C-4.71160947 0.7243139 -4.22341931 0.22322512 0 0 Z " fill="#FC4F07" transform="translate(73.6953125,23.8046875)"/>
<path d="M0 0 C7.6231928 1.61232649 15.0878741 3.5637486 22.5625 5.75 C31.07578545 8.23536173 39.63813429 10.44530097 48.25 12.5625 C59.60865604 15.35760218 70.89801442 18.29933814 82 22 C83.02162224 24.58410332 83.43946714 27.28357151 84 30 C78.6548257 29.44664495 73.89589148 28.50058497 68.75 26.875 C56.31255424 23.0495454 43.63461163 20.0932876 31 17 C30.7114917 17.73669922 30.4229834 18.47339844 30.12573242 19.23242188 C26.92123233 27.11058563 26.92123233 27.11058563 24 30 C20.67905698 30.97321359 17.61184825 30.76557212 14.1875 30.5 C13.30384766 30.46390625 12.42019531 30.4278125 11.50976562 30.390625 C9.33797028 30.29670953 7.16841885 30.15321507 5 30 C6.81295208 24.97317832 9.60057286 20.85750339 12.5390625 16.42578125 C14.17197169 14.18641014 14.17197169 14.18641014 14 12 C13.40832031 11.91363281 12.81664062 11.82726562 12.20703125 11.73828125 C6.74336751 10.76676519 3.39600927 9.71059351 0 5 C-0.12109375 2.33203125 -0.12109375 2.33203125 0 0 Z " fill="#FC510A" transform="translate(21,65)"/>
<path d="M0 0 C6.45786473 1.01138601 12.72689565 2.59681379 19.0625 4.1875 C20.93953613 4.65724243 20.93953613 4.65724243 22.85449219 5.13647461 C31.02795102 7.20072728 39.14099154 9.41438414 47.22851562 11.79077148 C55.15476076 14.09949921 63.1559151 16.07706991 71.18457031 17.99633789 C72.14588867 18.22957764 73.10720703 18.46281738 74.09765625 18.703125 C74.94851807 18.90583008 75.79937988 19.10853516 76.67602539 19.31738281 C78.98397232 19.99529222 80.93430973 20.76850302 83 22 C84.11714584 24.62423881 84.45369812 27.17744031 85 30 C77.90124996 28.66350396 70.92081403 27.03064866 63.9375 25.1875 C62.92365234 24.92179199 61.90980469 24.65608398 60.86523438 24.38232422 C54.56567798 22.71778299 48.31480969 20.94738686 42.08496094 19.03808594 C37.15892546 17.55911075 32.19193321 16.28296994 27.19921875 15.05078125 C25.78709957 14.69909537 24.37499028 14.34736974 22.96289062 13.99560547 C20.14870081 13.29542696 17.33073516 12.61416065 14.50976562 11.94189453 C13.19775068 11.61688024 11.88589459 11.29122387 10.57421875 10.96484375 C9.40463623 10.6824585 8.23505371 10.40007324 7.0300293 10.10913086 C3.73558368 8.9032114 2.15115964 7.7467949 0 5 C-0.25 2.25 -0.25 2.25 0 0 Z " fill="#FC530C" transform="translate(17,53)"/>
<path d="M0 0 C0.66 0 1.32 0 2 0 C3.19287411 3.87684087 4 6.91621923 4 11 C1.69 10.67 -0.62 10.34 -3 10 C-3 5.66905042 -2.03435531 3.72965139 0 0 Z " fill="#FEEFE9" transform="translate(73,46)"/>
</svg>
